PathFileType	4	(X/Y/Z)	Patient4_TMGait_0pt8_01_left_07.trc.trc
DataRate	CameraRate	NumFrames	NumMarkers	Units	OrigDataRate	OrigDataStartFrame	OrigNumFrames
85.365853658537	85.365853658537	5	33	mm	85.365853658537	1	       141
Frame#	Time	Sacral			L.Shoulder			Chest			R.Shoulder			Neck			R.ASIS			L.ASIS			R.Thigh.Superior			R.Thigh.Lateral			R.Thigh.Inferior			R.Patella			L.Thigh.Superior			L.Thigh.Lateral			L.Thigh.Inferior			L.Patella			L.Shank.Superior			L.Shank.Lateral			L.Shank.Inferior			R.Shank.Superior			R.Shank.Lateral			R.Shank.Inferior			R.Heel			R.Midfoot.Superior			R.Midfoot.Lateral			R.Toe			L.Heel			L.Midfoot.Lateral			L.Midfoot.Superior			L.Toe			L.Elbow			L.Wrist			R.Elbow			R.Wrist			
		X1	Y1	Z1	X2	Y2	Z2	X3	Y3	Z3	X4	Y4	Z4	X5	Y5	Z5	X6	Y6	Z6	X7	Y7	Z7	X8	Y8	Z8	X9	Y9	Z9	X10	Y10	Z10	X11	Y11	Z11	X12	Y12	Z12	X13	Y13	Z13	X14	Y14	Z14	X15	Y15	Z15	X16	Y16	Z16	X17	Y17	Z17	X18	Y18	Z18	X19	Y19	Z19	X20	Y20	Z20	X21	Y21	Z21	X22	Y22	Z22	X23	Y23	Z23	X24	Y24	Z24	X25	Y25	Z25	X26	Y26	Z26	X27	Y27	Z27	X28	Y28	Z28	X29	Y29	Z29	X30	Y30	Z30	X31	Y31	Z31	X32	Y32	Z32	X33	Y33	Z33	

1	6.980000000000	840.451872303590	1001.283992403516	540.491623249061	1022.495020500565	1424.296362476755	348.091375067355	1120.628739425516	1361.925439471180	515.221213902370	1030.015290734447	1438.414741517243	684.599947686357	1005.915003757489	1491.169648555497	503.344139164409	1066.986605940157	946.876066060080	665.739419398039	1062.193917657198	954.710503400624	389.618039888778	1115.430087874547	745.243799495986	642.970015820298	1033.103843498253	634.241810113343	696.031961067106	1115.096870208219	583.862931972028	619.566740286699	1116.528759642418	494.870075705196	623.214768105954	1136.642589008476	766.113706501665	422.002531306902	1090.163139674812	642.648077136840	339.794036148783	1192.419504360892	576.967214669008	402.820008840923	1202.612025370833	486.694438389095	396.087902280840	1131.195524064533	423.424615711940	385.815937385569	986.934648376587	391.718583238293	336.807550851022	966.829801101697	261.427935619885	386.195263669654	1089.342787395511	405.703246086695	628.491073562107	1016.913992848069	301.499436559166	687.140639798819	1059.486569331844	207.175639220234	623.588133717349	925.617134670026	43.672570338608	588.918585137957	1095.571557924548	97.806660569152	629.907631674190	1006.480432759810	36.863411266319	666.645519335781	1214.912692827059	46.011944160806	661.675111749038	773.488098684870	211.407369841396	425.640609275122	824.454239135948	166.442313135147	340.424765609278	930.472088539618	159.903077043825	359.666474432098	993.647952599858	42.596579889707	319.017782704333	1047.078326992129	1066.195622611358	250.883925596842	1249.768500239076	902.518723893892	279.917564995754	971.537405332009	1093.515362132867	806.605659713101	1113.180051985799	873.016534839246	801.501502663669	
2	6.991714285714	839.241112746146	1002.398573274491	542.536728125677	1020.043420555227	1424.544341899839	348.753553361124	1119.704259369323	1362.307066902341	515.012305548761	1031.121111905577	1439.216075427949	685.305148380298	1005.215146232736	1491.855105885291	503.938148972906	1066.322717671493	947.121729982837	665.758910306436	1059.148503941638	955.995453838250	389.767080924786	1111.473852920232	744.489042167119	642.037137258844	1028.132723859497	634.425406457899	696.241480003061	1108.570204105297	583.023155531682	619.272689372355	1108.599275105161	494.273395426925	623.017156097497	1136.588577344593	770.915591616538	421.816961219704	1092.539288037561	646.556470743263	339.508745748369	1196.443977843579	583.191022476383	401.920077688498	1209.131548340061	493.748376872147	394.669997341036	1141.078473332753	428.161788082794	384.199820826466	998.655741991324	388.711962988120	337.049503240241	987.349334901725	257.464479460238	384.924100725752	1081.128336419528	405.393317252657	628.500070989277	1008.353218795651	301.481416070700	687.308800398874	1050.329604722695	206.909843702625	623.544583762157	915.672397785668	43.684998514357	588.922350304091	1085.674325790768	97.709471850859	629.914407962438	996.572011520475	36.831699214799	666.637419888248	1205.006383538621	45.772256131305	661.733597524548	799.188205803197	195.014884411739	426.810692873907	850.987358922317	154.779405546379	340.114386901408	956.899146193903	155.149377937451	357.790369882820	1026.511813026533	43.564562854114	314.364849721246	1040.844391067648	1065.241144395575	254.031146069983	1227.421901375342	886.622595438125	278.842746647600	982.477746199391	1093.798479749267	808.878363309811	1140.241412497882	889.053522853462	799.298672449147	
3	7.003428571429	838.057889628326	1003.465264870068	544.525364705569	1017.649456033500	1424.790036664600	349.405576061831	1118.801597871249	1362.662190396723	514.801801154144	1032.216102177239	1439.977291922756	685.990553787000	1004.531805284011	1492.510974203433	504.533667577928	1065.643050298043	947.343746746967	665.745292760309	1056.120761515357	957.181014418413	389.911008080436	1107.531425468322	743.740869180343	641.077279302582	1023.200730898209	634.600578713539	696.445416129396	1102.083217630594	582.182627578825	618.976352533578	1100.732024487064	493.687104236448	622.825434335369	1136.468102116347	775.572743432143	421.635881593095	1094.803330645931	650.329438963685	339.251318624631	1200.254905942438	589.218930919155	401.078469088729	1215.385226922897	500.641132948544	393.323242320371	1150.722547039205	432.791562533516	382.667644586811	1010.326453585923	385.578021741827	337.186309672702	1007.762290979620	253.513652593020	383.649665382244	1072.986837454857	405.086775187155	628.513110556786	999.872565176166	301.456312561616	687.460681335724	1041.266443130872	206.651953117498	623.505113008578	905.850897194639	43.696801390619	588.930204030090	1075.894866587188	97.615822493766	629.920686399223	986.778230900168	36.798868320391	666.619091142075	1195.215284370553	45.537655234884	661.791405328326	824.882240416303	178.774471367885	427.742232635910	877.565356972222	143.196799053093	339.679534653387	983.259865372257	150.437058262085	355.947324482411	1059.262323124473	44.589282628109	309.943548868349	1034.633015091654	1064.311506326396	257.058466362862	1205.124938260045	871.287352036617	277.769476273105	993.387131372707	1094.085034465433	811.087943125530	1166.857912686789	905.214736996025	797.025342408876	
4	7.015142857143	836.917100274638	1004.441075344503	546.386873335355	1015.373448163091	1425.025032592770	350.029724151913	1117.942655018808	1362.956135214304	514.581919062431	1033.290940985884	1440.653887620944	686.628979750480	1003.881681895810	1493.102905104712	505.123600227254	1064.931965353165	947.513355911148	665.660838835509	1053.137880586997	958.174686911898	390.036964801520	1103.586781156267	742.988859352476	640.088242607643	1018.280956139826	634.761185052611	696.636289338763	1095.608658313879	581.331860875831	618.684061799248	1092.909733563266	493.115843975874	622.648751489044	1136.195621146497	779.909433427570	421.463343895549	1096.831507925950	653.827338187463	339.009284469321	1203.612177730517	594.827761319601	400.339327500151	1221.089638090214	507.211632439271	392.110988244281	1159.903580172361	437.227766166167	381.283077639386	1021.986250256300	382.204343486978	337.093342231697	1028.086959349507	249.644442004286	382.361272372006	1064.903073788602	404.787596721994	628.533281123766	991.456705569242	301.421847825546	687.583219651104	1032.297702090997	206.411094410588	623.473681657542	896.178207099955	43.706392478568	588.945954023508	1066.254345300788	97.528701917062	629.926248602802	977.117685333732	36.763563735660	666.582492412390	1185.558135502773	45.315098334396	661.845944619402	850.776792923333	162.861024953911	428.191102640776	904.470819214926	131.824317311411	339.011440082956	1009.679323263870	145.889052156756	354.177639738923	1091.990927473105	45.869094127663	306.049384707333	1028.354233219575	1063.458475698762	259.824655901710	1182.796061095204	857.052216689189	276.700436251488	1004.353949010822	1094.422772127120	813.153514807884	1192.671721273286	921.809293150425	794.571845411267	
5	7.026857142857	835.824209239301	1005.296919410722	548.056558987471	1013.268975060939	1425.240560496036	350.607635073862	1117.146274078222	1363.158313088258	514.344624970852	1034.337172210701	1441.208893564488	687.195024297038	1003.279116136806	1493.601699885189	505.697932518668	1064.179723364949	947.608203708721	665.484965489261	1050.235164462802	958.914486133848	390.127163151796	1099.621440213759	742.217998803343	639.087421394068	1013.328909582773	634.902027693152	696.807841988869	1089.107807501984	580.460559259361	618.408412602994	1085.096307543038	492.561571611104	622.497549442287	1135.697013172110	783.768747970632	421.305454237940	1098.508455516390	656.927211844018	338.764374131088	1206.308355422598	599.821317697246	399.735273610489	1226.008661649749	513.325445795894	391.083009275187	1168.439189676238	441.406285929913	380.097258355564	1033.700952754238	378.514832571073	336.655316011637	1048.366935027749	245.944102152213	381.055381770746	1056.836275069823	404.497033680167	628.561867308771	983.065110564489	301.378278687845	687.669420953881	1023.398218381678	206.193970328612	623.452495926516	886.645946575308	43.711158638870	588.971598852275	1056.741637009210	97.450143198501	629.930141364253	967.579002330203	36.725496361856	666.524320981208	1176.023086145816	45.111963048928	661.896167811835	877.089506227831	147.449432990868	427.953751928359	932.001365007769	120.807863181875	338.028796777823	1036.310584960997	141.647285750541	352.526240417526	1124.825918254774	47.620015965293	302.967498637590	1021.894775289702	1062.733233808980	262.205716319842	1160.360500519208	844.348501847185	275.639470138374	1015.484583407951	1094.866409705201	815.001855360981	1217.405719267758	939.127875898312	791.839716287900	
